<mxfile host="app.diagrams.net" modified="2024-07-05T08:28:21.273Z" agent="Mozilla/5.0 (Macintosh; Intel Mac OS X 10_15_7) AppleWebKit/537.36 (KHTML, like Gecko) Chrome/124.0.0.0 Safari/537.36 Edg/124.0.0.0" version="24.6.4" etag="vyghGJ6GK9KaxHuI_-DN" type="github">
  <diagram name="Страница — 1" id="22gyJdJOu4S0muKJZ3lq">
    <mxGraphModel>
      <root>
        <mxCell id="0" />
        <mxCell id="1" parent="0" />
      </root>
    </mxGraphModel>
  </diagram>
</mxfile>
